<?xml version="1.0" standalone="no"?>
<!DOCTYPE svg PUBLIC "-//W3C//DTD SVG 20010904//EN"
 "http://www.w3.org/TR/2001/REC-SVG-20010904/DTD/svg10.dtd">
<svg version="1.0" xmlns="http://www.w3.org/2000/svg"
 width="110.000000pt" height="110.000000pt" viewBox="0 0 110.000000 110.000000"
 preserveAspectRatio="xMidYMid meet">
<metadata>
Created by potrace 1.11, written by Peter Selinger 2001-2013
</metadata>
<g transform="translate(0.000000,110.000000) scale(0.100000,-0.100000)"
fill="#000000" stroke="none">
<path d="M912 972 c-9 -3 -12 -50 -12 -168 l0 -165 -127 3 -128 3 0 163 c0 89
-1 162 -3 162 -3 0 -68 -63 -145 -140 -77 -77 -142 -140 -143 -140 -3 0 -61
61 -192 200 l-80 85 1 -345 2 -344 55 3 c30 1 57 5 59 7 3 3 4 90 4 195 l-1
191 21 -19 c11 -10 43 -42 70 -70 28 -29 54 -53 59 -53 5 0 46 32 91 70 l82
70 3 -194 c3 -219 -3 -206 83 -198 l35 4 0 125 -1 125 105 -1 c58 0 115 0 128
0 22 -1 22 -3 22 -126 l0 -125 60 0 60 0 0 340 c0 265 -3 340 -12 341 -49 4
-86 5 -96 1z"/>
<path d="M86 162 c-10 -2 -16 -11 -14 -20 3 -16 43 -17 469 -18 257 -1 473 2
480 7 11 6 11 11 2 20 -9 9 -130 12 -466 13 -249 1 -461 -1 -471 -2z"/>
</g>
</svg>
