<?xml version="1.0" standalone="no"?>
<!DOCTYPE svg PUBLIC "-//W3C//DTD SVG 20010904//EN"
 "http://www.w3.org/TR/2001/REC-SVG-20010904/DTD/svg10.dtd">
<svg version="1.0" xmlns="http://www.w3.org/2000/svg"
 width="121.000000pt" height="121.000000pt" viewBox="0 0 121.000000 121.000000"
 preserveAspectRatio="xMidYMid meet">
<metadata>
Created by potrace 1.11, written by Peter Selinger 2001-2013
</metadata>
<g transform="translate(0.000000,121.000000) scale(0.100000,-0.100000)"
fill="#000000" stroke="none">
<path d="M443 1092 c-183 -104 -193 -112 -194 -154 -1 -41 -1 -315 0 -345 1
-29 27 -53 57 -53 27 0 26 -16 26 225 0 100 3 146 13 161 7 11 83 61 169 109
86 49 156 93 156 97 0 15 -40 48 -57 48 -10 0 -87 -39 -170 -88z"/>
<path d="M735 1092 c-43 -14 -316 -175 -330 -195 -12 -17 -15 -59 -15 -204 0
-186 7 -227 39 -236 44 -11 47 -2 46 188 -1 99 2 187 6 196 5 9 80 58 169 108
88 51 160 99 160 106 0 8 -10 21 -22 29 -24 17 -23 17 -53 8z"/>
<path d="M733 927 c-184 -107 -183 -106 -191 -147 -5 -19 -7 -110 -6 -203 1
-146 3 -170 19 -187 10 -11 28 -20 39 -20 27 0 315 162 345 194 21 23 22 30
22 211 0 277 -6 281 -228 152z"/>
<path d="M98 249 c-9 -5 -13 -33 -13 -91 0 -77 2 -83 22 -86 18 -3 21 1 17 32
-3 36 -3 36 37 36 28 0 39 4 39 15 0 15 -16 19 -52 16 -10 -1 -18 2 -18 8 0 5
-3 16 -6 25 -5 13 2 16 34 16 41 0 62 13 41 26 -16 9 -86 12 -101 3z"/>
<path d="M377 252 c-2 -4 -3 -45 -3 -92 1 -72 4 -85 19 -88 15 -3 17 6 17 86
0 70 -3 91 -15 95 -8 4 -16 3 -18 -1z"/>
<path d="M442 242 c-4 -9 -7 -39 -6 -67 1 -27 2 -63 3 -78 1 -21 5 -28 18 -25
15 3 18 16 18 90 0 62 -3 89 -12 92 -7 3 -16 -2 -21 -12z"/>
<path d="M1016 253 c-3 -4 -6 -46 -6 -95 0 -81 2 -88 20 -88 15 0 20 7 20 28
l1 27 24 -27 c13 -16 33 -28 45 -28 20 0 20 1 -4 33 -31 41 -32 49 -6 72 11
10 17 21 14 24 -12 12 -30 5 -51 -19 l-22 -25 -1 46 c0 44 -17 69 -34 52z"/>
<path d="M643 226 c3 -8 -1 -17 -9 -20 -13 -5 -13 -9 -1 -28 7 -13 13 -34 11
-48 -3 -37 13 -60 41 -60 27 0 34 17 10 26 -19 8 -18 84 2 84 18 0 17 16 -2
24 -8 3 -15 12 -15 21 0 9 -9 15 -21 15 -14 0 -19 -5 -16 -14z"/>
<path d="M227 203 c-6 -11 0 -110 8 -122 9 -15 58 -14 74 1 11 10 13 10 7 1
-5 -9 0 -13 13 -13 19 0 21 6 21 68 0 59 -2 68 -19 69 -13 1 -18 -5 -19 -25 0
-62 -3 -73 -17 -79 -22 -8 -28 2 -35 54 -5 42 -21 66 -33 46z"/>
<path d="M523 200 c-32 -13 -28 -70 4 -70 8 0 24 -5 35 -11 16 -9 18 -13 7
-19 -7 -5 -21 -4 -30 1 -10 5 -25 9 -35 9 -16 0 -16 -1 1 -20 25 -28 79 -27
99 2 14 20 14 24 0 39 -9 10 -25 19 -37 21 -11 2 -23 9 -25 17 -5 14 9 13 51
-4 12 -5 17 -2 17 9 0 9 -12 21 -26 26 -30 12 -32 12 -61 0z"/>
<path d="M748 199 c-10 -5 -18 -17 -18 -26 0 -11 5 -13 18 -8 25 11 51 11 54
0 2 -5 -12 -12 -30 -16 -47 -10 -58 -23 -44 -54 13 -27 49 -34 70 -13 9 9 12
9 12 0 0 -22 30 -12 31 11 3 48 -1 91 -10 100 -13 13 -64 18 -83 6z m56 -84
c-6 -16 -44 -21 -44 -7 0 14 12 22 31 22 12 0 16 -5 13 -15z"/>
<path d="M893 195 c-38 -26 -37 -92 1 -117 19 -13 64 -9 80 8 22 21 20 34 -4
34 -11 0 -20 -4 -20 -10 0 -5 -9 -10 -20 -10 -26 0 -38 46 -17 67 13 13 17 13
40 -2 34 -22 50 1 17 27 -27 22 -49 23 -77 3z"/>
</g>
</svg>
